solid OpenSCAD_Model
  facet normal 1 -0 0
    outer loop
      vertex 10 -10 13
      vertex 10 10 0
      vertex 10 10 13
    endloop
  endfacet
  facet normal 1 0 0
    outer loop
      vertex 10 10 0
      vertex 10 -10 13
      vertex 10 -10 0
    endloop
  endfacet
  facet normal 0 0 1
    outer loop
      vertex 10 10 13
      vertex 6.8 3.92598 13
      vertex 10 -10 13
    endloop
  endfacet
  facet normal 0 0 1
    outer loop
      vertex 10 10 13
      vertex 0 7.85196 13
      vertex 6.8 3.92598 13
    endloop
  endfacet
  facet normal 0 0 1
    outer loop
      vertex -6.8 3.92598 13
      vertex -10 10 13
      vertex -6.8 -3.92598 13
    endloop
  endfacet
  facet normal 0 0 1
    outer loop
      vertex 0 7.85196 13
      vertex -10 10 13
      vertex -6.8 3.92598 13
    endloop
  endfacet
  facet normal -0 0 1
    outer loop
      vertex -10 10 13
      vertex 0 7.85196 13
      vertex 10 10 13
    endloop
  endfacet
  facet normal -0 0 1
    outer loop
      vertex 6.8 -3.92598 13
      vertex 10 -10 13
      vertex 6.8 3.92598 13
    endloop
  endfacet
  facet normal -0 0 1
    outer loop
      vertex 0 -7.85196 13
      vertex 10 -10 13
      vertex 6.8 -3.92598 13
    endloop
  endfacet
  facet normal 0 0 1
    outer loop
      vertex 0 -7.85196 13
      vertex -10 -10 13
      vertex 10 -10 13
    endloop
  endfacet
  facet normal 0 0 1
    outer loop
      vertex -6.8 -3.92598 13
      vertex -10 -10 13
      vertex 0 -7.85196 13
    endloop
  endfacet
  facet normal 0 0 1
    outer loop
      vertex -10 -10 13
      vertex -6.8 -3.92598 13
      vertex -10 10 13
    endloop
  endfacet
  facet normal 0 0 -1
    outer loop
      vertex 10 -10 0
      vertex 4.6 0 0
      vertex 10 10 0
    endloop
  endfacet
  facet normal 0 0 -1
    outer loop
      vertex 10 -10 0
      vertex 4.59015 -0.300854 0
      vertex 4.6 0 0
    endloop
  endfacet
  facet normal 0 0 -1
    outer loop
      vertex 10 -10 0
      vertex 4.56065 -0.60042 0
      vertex 4.59015 -0.300854 0
    endloop
  endfacet
  facet normal 0 0 -1
    outer loop
      vertex 10 -10 0
      vertex 4.51161 -0.897415 0
      vertex 4.56065 -0.60042 0
    endloop
  endfacet
  facet normal 0 0 -1
    outer loop
      vertex 10 -10 0
      vertex 4.44326 -1.19057 0
      vertex 4.51161 -0.897415 0
    endloop
  endfacet
  facet normal 0 0 -1
    outer loop
      vertex 10 -10 0
      vertex 4.35588 -1.47862 0
      vertex 4.44326 -1.19057 0
    endloop
  endfacet
  facet normal 0 0 -1
    outer loop
      vertex 10 -10 0
      vertex 4.24985 -1.76034 0
      vertex 4.35588 -1.47862 0
    endloop
  endfacet
  facet normal 0 0 -1
    outer loop
      vertex 10 -10 0
      vertex 4.12561 -2.03453 0
      vertex 4.24985 -1.76034 0
    endloop
  endfacet
  facet normal 0 0 -1
    outer loop
      vertex 10 -10 0
      vertex 3.98372 -2.3 0
      vertex 4.12561 -2.03453 0
    endloop
  endfacet
  facet normal 0 0 -1
    outer loop
      vertex 10 -10 0
      vertex 3.82476 -2.55562 0
      vertex 3.98372 -2.3 0
    endloop
  endfacet
  facet normal 0 0 -1
    outer loop
      vertex 10 -10 0
      vertex 3.64942 -2.8003 0
      vertex 3.82476 -2.55562 0
    endloop
  endfacet
  facet normal 0 0 -1
    outer loop
      vertex 10 -10 0
      vertex 3.45846 -3.03299 0
      vertex 3.64942 -2.8003 0
    endloop
  endfacet
  facet normal 0 0 -1
    outer loop
      vertex 10 -10 0
      vertex 3.25269 -3.25269 0
      vertex 3.45846 -3.03299 0
    endloop
  endfacet
  facet normal 0 0 -1
    outer loop
      vertex 10 -10 0
      vertex 3.03299 -3.45846 0
      vertex 3.25269 -3.25269 0
    endloop
  endfacet
  facet normal 0 0 -1
    outer loop
      vertex 10 -10 0
      vertex 2.8003 -3.64942 0
      vertex 3.03299 -3.45846 0
    endloop
  endfacet
  facet normal 0 0 -1
    outer loop
      vertex 10 -10 0
      vertex 2.55562 -3.82476 0
      vertex 2.8003 -3.64942 0
    endloop
  endfacet
  facet normal 0 0 -1
    outer loop
      vertex 10 -10 0
      vertex 2.3 -3.98372 0
      vertex 2.55562 -3.82476 0
    endloop
  endfacet
  facet normal 0 0 -1
    outer loop
      vertex 10 -10 0
      vertex 2.03453 -4.12561 0
      vertex 2.3 -3.98372 0
    endloop
  endfacet
  facet normal 0 0 -1
    outer loop
      vertex 10 -10 0
      vertex 1.76034 -4.24985 0
      vertex 2.03453 -4.12561 0
    endloop
  endfacet
  facet normal 0 0 -1
    outer loop
      vertex 10 -10 0
      vertex 1.47862 -4.35588 0
      vertex 1.76034 -4.24985 0
    endloop
  endfacet
  facet normal 0 0 -1
    outer loop
      vertex 10 -10 0
      vertex 1.19057 -4.44326 0
      vertex 1.47862 -4.35588 0
    endloop
  endfacet
  facet normal 0 0 -1
    outer loop
      vertex 10 -10 0
      vertex 0.897415 -4.51161 0
      vertex 1.19057 -4.44326 0
    endloop
  endfacet
  facet normal 0 0 -1
    outer loop
      vertex 10 -10 0
      vertex 0.60042 -4.56065 0
      vertex 0.897415 -4.51161 0
    endloop
  endfacet
  facet normal 0 0 -1
    outer loop
      vertex 10 -10 0
      vertex 0.300854 -4.59015 0
      vertex 0.60042 -4.56065 0
    endloop
  endfacet
  facet normal 0 0 -1
    outer loop
      vertex 10 -10 0
      vertex 0 -4.6 0
      vertex 0.300854 -4.59015 0
    endloop
  endfacet
  facet normal 0 0 -1
    outer loop
      vertex -10 -10 0
      vertex 0 -4.6 0
      vertex 10 -10 0
    endloop
  endfacet
  facet normal -0 0 -1
    outer loop
      vertex 0 -4.6 0
      vertex -10 -10 0
      vertex -0.300854 -4.59015 0
    endloop
  endfacet
  facet normal -0 0 -1
    outer loop
      vertex -0.300854 -4.59015 0
      vertex -10 -10 0
      vertex -0.60042 -4.56065 0
    endloop
  endfacet
  facet normal -0 0 -1
    outer loop
      vertex -0.60042 -4.56065 0
      vertex -10 -10 0
      vertex -0.897415 -4.51161 0
    endloop
  endfacet
  facet normal -0 0 -1
    outer loop
      vertex -0.897415 -4.51161 0
      vertex -10 -10 0
      vertex -1.19057 -4.44326 0
    endloop
  endfacet
  facet normal -0 0 -1
    outer loop
      vertex -1.19057 -4.44326 0
      vertex -10 -10 0
      vertex -1.47862 -4.35588 0
    endloop
  endfacet
  facet normal -0 0 -1
    outer loop
      vertex -1.47862 -4.35588 0
      vertex -10 -10 0
      vertex -1.76034 -4.24985 0
    endloop
  endfacet
  facet normal -0 0 -1
    outer loop
      vertex -4.59015 -0.300854 0
      vertex -10 -10 0
      vertex -4.6 0 0
    endloop
  endfacet
  facet normal -0 0 -1
    outer loop
      vertex -4.56065 -0.60042 0
      vertex -10 -10 0
      vertex -4.59015 -0.300854 0
    endloop
  endfacet
  facet normal -0 0 -1
    outer loop
      vertex -4.51161 -0.897415 0
      vertex -10 -10 0
      vertex -4.56065 -0.60042 0
    endloop
  endfacet
  facet normal -0 0 -1
    outer loop
      vertex -4.44326 -1.19057 0
      vertex -10 -10 0
      vertex -4.51161 -0.897415 0
    endloop
  endfacet
  facet normal -0 0 -1
    outer loop
      vertex -4.35588 -1.47862 0
      vertex -10 -10 0
      vertex -4.44326 -1.19057 0
    endloop
  endfacet
  facet normal -0 0 -1
    outer loop
      vertex -4.24985 -1.76034 0
      vertex -10 -10 0
      vertex -4.35588 -1.47862 0
    endloop
  endfacet
  facet normal -0 0 -1
    outer loop
      vertex -4.12561 -2.03453 0
      vertex -10 -10 0
      vertex -4.24985 -1.76034 0
    endloop
  endfacet
  facet normal -0 0 -1
    outer loop
      vertex -3.98372 -2.3 0
      vertex -10 -10 0
      vertex -4.12561 -2.03453 0
    endloop
  endfacet
  facet normal -0 0 -1
    outer loop
      vertex -3.82476 -2.55562 0
      vertex -10 -10 0
      vertex -3.98372 -2.3 0
    endloop
  endfacet
  facet normal -0 0 -1
    outer loop
      vertex -3.64942 -2.8003 0
      vertex -10 -10 0
      vertex -3.82476 -2.55562 0
    endloop
  endfacet
  facet normal -0 0 -1
    outer loop
      vertex -3.45846 -3.03299 0
      vertex -10 -10 0
      vertex -3.64942 -2.8003 0
    endloop
  endfacet
  facet normal -0 0 -1
    outer loop
      vertex -3.25269 -3.25269 0
      vertex -10 -10 0
      vertex -3.45846 -3.03299 0
    endloop
  endfacet
  facet normal -0 0 -1
    outer loop
      vertex -3.03299 -3.45846 0
      vertex -10 -10 0
      vertex -3.25269 -3.25269 0
    endloop
  endfacet
  facet normal -0 0 -1
    outer loop
      vertex -2.8003 -3.64942 0
      vertex -10 -10 0
      vertex -3.03299 -3.45846 0
    endloop
  endfacet
  facet normal -0 0 -1
    outer loop
      vertex -2.55562 -3.82476 0
      vertex -10 -10 0
      vertex -2.8003 -3.64942 0
    endloop
  endfacet
  facet normal -0 0 -1
    outer loop
      vertex -2.3 -3.98372 0
      vertex -10 -10 0
      vertex -2.55562 -3.82476 0
    endloop
  endfacet
  facet normal -0 0 -1
    outer loop
      vertex -2.03453 -4.12561 0
      vertex -10 -10 0
      vertex -2.3 -3.98372 0
    endloop
  endfacet
  facet normal -0 0 -1
    outer loop
      vertex -1.76034 -4.24985 0
      vertex -10 -10 0
      vertex -2.03453 -4.12561 0
    endloop
  endfacet
  facet normal 0 0 -1
    outer loop
      vertex 4.59015 0.300854 0
      vertex 10 10 0
      vertex 4.6 0 0
    endloop
  endfacet
  facet normal 0 0 -1
    outer loop
      vertex 4.56065 0.60042 0
      vertex 10 10 0
      vertex 4.59015 0.300854 0
    endloop
  endfacet
  facet normal 0 0 -1
    outer loop
      vertex 4.51161 0.897415 0
      vertex 10 10 0
      vertex 4.56065 0.60042 0
    endloop
  endfacet
  facet normal 0 0 -1
    outer loop
      vertex 4.44326 1.19057 0
      vertex 10 10 0
      vertex 4.51161 0.897415 0
    endloop
  endfacet
  facet normal 0 0 -1
    outer loop
      vertex 4.35588 1.47862 0
      vertex 10 10 0
      vertex 4.44326 1.19057 0
    endloop
  endfacet
  facet normal 0 0 -1
    outer loop
      vertex 4.24985 1.76034 0
      vertex 10 10 0
      vertex 4.35588 1.47862 0
    endloop
  endfacet
  facet normal 0 0 -1
    outer loop
      vertex 4.12561 2.03453 0
      vertex 10 10 0
      vertex 4.24985 1.76034 0
    endloop
  endfacet
  facet normal 0 0 -1
    outer loop
      vertex 3.98372 2.3 0
      vertex 10 10 0
      vertex 4.12561 2.03453 0
    endloop
  endfacet
  facet normal 0 0 -1
    outer loop
      vertex 3.82476 2.55562 0
      vertex 10 10 0
      vertex 3.98372 2.3 0
    endloop
  endfacet
  facet normal 0 0 -1
    outer loop
      vertex 3.64942 2.8003 0
      vertex 10 10 0
      vertex 3.82476 2.55562 0
    endloop
  endfacet
  facet normal 0 0 -1
    outer loop
      vertex 3.45846 3.03299 0
      vertex 10 10 0
      vertex 3.64942 2.8003 0
    endloop
  endfacet
  facet normal 0 0 -1
    outer loop
      vertex 3.25269 3.25269 0
      vertex 10 10 0
      vertex 3.45846 3.03299 0
    endloop
  endfacet
  facet normal 0 0 -1
    outer loop
      vertex 3.03299 3.45846 0
      vertex 10 10 0
      vertex 3.25269 3.25269 0
    endloop
  endfacet
  facet normal 0 0 -1
    outer loop
      vertex 2.8003 3.64942 0
      vertex 10 10 0
      vertex 3.03299 3.45846 0
    endloop
  endfacet
  facet normal 0 0 -1
    outer loop
      vertex 2.55562 3.82476 0
      vertex 10 10 0
      vertex 2.8003 3.64942 0
    endloop
  endfacet
  facet normal 0 0 -1
    outer loop
      vertex 2.3 3.98372 0
      vertex 10 10 0
      vertex 2.55562 3.82476 0
    endloop
  endfacet
  facet normal 0 0 -1
    outer loop
      vertex 2.03453 4.12561 0
      vertex 10 10 0
      vertex 2.3 3.98372 0
    endloop
  endfacet
  facet normal 0 0 -1
    outer loop
      vertex 1.76034 4.24985 0
      vertex 10 10 0
      vertex 2.03453 4.12561 0
    endloop
  endfacet
  facet normal 0 0 -1
    outer loop
      vertex 1.47862 4.35588 0
      vertex 10 10 0
      vertex 1.76034 4.24985 0
    endloop
  endfacet
  facet normal 0 0 -1
    outer loop
      vertex 1.19057 4.44326 0
      vertex 10 10 0
      vertex 1.47862 4.35588 0
    endloop
  endfacet
  facet normal 0 0 -1
    outer loop
      vertex 0.897415 4.51161 0
      vertex 10 10 0
      vertex 1.19057 4.44326 0
    endloop
  endfacet
  facet normal 0 0 -1
    outer loop
      vertex 0.60042 4.56065 0
      vertex 10 10 0
      vertex 0.897415 4.51161 0
    endloop
  endfacet
  facet normal 0 0 -1
    outer loop
      vertex 0.300854 4.59015 0
      vertex 10 10 0
      vertex 0.60042 4.56065 0
    endloop
  endfacet
  facet normal 0 0 -1
    outer loop
      vertex 0 4.6 0
      vertex 10 10 0
      vertex 0.300854 4.59015 0
    endloop
  endfacet
  facet normal 0 0 -1
    outer loop
      vertex -10 10 0
      vertex 0 4.6 0
      vertex -0.300854 4.59015 0
    endloop
  endfacet
  facet normal 0 0 -1
    outer loop
      vertex -10 10 0
      vertex -0.300854 4.59015 0
      vertex -0.60042 4.56065 0
    endloop
  endfacet
  facet normal 0 0 -1
    outer loop
      vertex -10 10 0
      vertex -0.60042 4.56065 0
      vertex -0.897415 4.51161 0
    endloop
  endfacet
  facet normal 0 0 -1
    outer loop
      vertex -10 10 0
      vertex -0.897415 4.51161 0
      vertex -1.19057 4.44326 0
    endloop
  endfacet
  facet normal 0 0 -1
    outer loop
      vertex -10 10 0
      vertex -1.19057 4.44326 0
      vertex -1.47862 4.35588 0
    endloop
  endfacet
  facet normal 0 0 -1
    outer loop
      vertex -10 10 0
      vertex -1.47862 4.35588 0
      vertex -1.76034 4.24985 0
    endloop
  endfacet
  facet normal 0 0 -1
    outer loop
      vertex -10 10 0
      vertex -1.76034 4.24985 0
      vertex -2.03453 4.12561 0
    endloop
  endfacet
  facet normal 0 0 -1
    outer loop
      vertex -10 10 0
      vertex -4.6 0 0
      vertex -10 -10 0
    endloop
  endfacet
  facet normal 0 0 -1
    outer loop
      vertex -4.6 0 0
      vertex -10 10 0
      vertex -4.59015 0.300854 0
    endloop
  endfacet
  facet normal 0 0 -1
    outer loop
      vertex -4.59015 0.300854 0
      vertex -10 10 0
      vertex -4.56065 0.60042 0
    endloop
  endfacet
  facet normal 0 0 -1
    outer loop
      vertex -4.56065 0.60042 0
      vertex -10 10 0
      vertex -4.51161 0.897415 0
    endloop
  endfacet
  facet normal 0 0 -1
    outer loop
      vertex -4.51161 0.897415 0
      vertex -10 10 0
      vertex -4.44326 1.19057 0
    endloop
  endfacet
  facet normal 0 0 -1
    outer loop
      vertex -4.44326 1.19057 0
      vertex -10 10 0
      vertex -4.35588 1.47862 0
    endloop
  endfacet
  facet normal 0 0 -1
    outer loop
      vertex -4.35588 1.47862 0
      vertex -10 10 0
      vertex -4.24985 1.76034 0
    endloop
  endfacet
  facet normal 0 0 -1
    outer loop
      vertex 0 4.6 0
      vertex -10 10 0
      vertex 10 10 0
    endloop
  endfacet
  facet normal 0 0 -1
    outer loop
      vertex -2.3 3.98372 0
      vertex -10 10 0
      vertex -2.03453 4.12561 0
    endloop
  endfacet
  facet normal 0 0 -1
    outer loop
      vertex -2.55562 3.82476 0
      vertex -10 10 0
      vertex -2.3 3.98372 0
    endloop
  endfacet
  facet normal 0 0 -1
    outer loop
      vertex -2.8003 3.64942 0
      vertex -10 10 0
      vertex -2.55562 3.82476 0
    endloop
  endfacet
  facet normal 0 0 -1
    outer loop
      vertex -3.03299 3.45846 0
      vertex -10 10 0
      vertex -2.8003 3.64942 0
    endloop
  endfacet
  facet normal 0 0 -1
    outer loop
      vertex -3.25269 3.25269 0
      vertex -10 10 0
      vertex -3.03299 3.45846 0
    endloop
  endfacet
  facet normal 0 0 -1
    outer loop
      vertex -3.45846 3.03299 0
      vertex -10 10 0
      vertex -3.25269 3.25269 0
    endloop
  endfacet
  facet normal 0 0 -1
    outer loop
      vertex -3.64942 2.8003 0
      vertex -10 10 0
      vertex -3.45846 3.03299 0
    endloop
  endfacet
  facet normal 0 0 -1
    outer loop
      vertex -3.82476 2.55562 0
      vertex -10 10 0
      vertex -3.64942 2.8003 0
    endloop
  endfacet
  facet normal 0 0 -1
    outer loop
      vertex -3.98372 2.3 0
      vertex -10 10 0
      vertex -3.82476 2.55562 0
    endloop
  endfacet
  facet normal 0 0 -1
    outer loop
      vertex -4.12561 2.03453 0
      vertex -10 10 0
      vertex -3.98372 2.3 0
    endloop
  endfacet
  facet normal 0 0 -1
    outer loop
      vertex -4.24985 1.76034 0
      vertex -10 10 0
      vertex -4.12561 2.03453 0
    endloop
  endfacet
  facet normal -1 0 0
    outer loop
      vertex -10 -10 0
      vertex -10 10 13
      vertex -10 10 0
    endloop
  endfacet
  facet normal -1 -0 0
    outer loop
      vertex -10 10 13
      vertex -10 -10 0
      vertex -10 -10 13
    endloop
  endfacet
  facet normal 0 1 -0
    outer loop
      vertex 10 10 0
      vertex -10 10 13
      vertex 10 10 13
    endloop
  endfacet
  facet normal 0 1 0
    outer loop
      vertex -10 10 13
      vertex 10 10 0
      vertex -10 10 0
    endloop
  endfacet
  facet normal 0 -1 0
    outer loop
      vertex -10 -10 0
      vertex 10 -10 13
      vertex -10 -10 13
    endloop
  endfacet
  facet normal 0 -1 -0
    outer loop
      vertex 10 -10 13
      vertex -10 -10 0
      vertex 10 -10 0
    endloop
  endfacet
  facet normal -0.995186 -0.0980018 0
    outer loop
      vertex 4.59015 0.300854 0
      vertex 4.56065 0.60042 5.8
      vertex 4.56065 0.60042 0
    endloop
  endfacet
  facet normal -0.995186 -0.0980018 0
    outer loop
      vertex 4.56065 0.60042 5.8
      vertex 4.59015 0.300854 0
      vertex 4.59015 0.300854 5.8
    endloop
  endfacet
  facet normal -0.999464 -0.0327226 0
    outer loop
      vertex 4.6 0 0
      vertex 4.59015 0.300854 5.8
      vertex 4.59015 0.300854 0
    endloop
  endfacet
  facet normal -0.999464 -0.0327226 0
    outer loop
      vertex 4.59015 0.300854 5.8
      vertex 4.6 0 0
      vertex 4.6 0 5.8
    endloop
  endfacet
  facet normal -0.98664 -0.162915 0
    outer loop
      vertex 4.56065 0.60042 0
      vertex 4.51161 0.897415 5.8
      vertex 4.51161 0.897415 0
    endloop
  endfacet
  facet normal -0.98664 -0.162915 0
    outer loop
      vertex 4.51161 0.897415 5.8
      vertex 4.56065 0.60042 0
      vertex 4.56065 0.60042 5.8
    endloop
  endfacet
  facet normal -0.97388 -0.227063 0
    outer loop
      vertex 4.51161 0.897415 0
      vertex 4.44326 1.19057 5.8
      vertex 4.44326 1.19057 0
    endloop
  endfacet
  facet normal -0.97388 -0.227063 0
    outer loop
      vertex 4.44326 1.19057 5.8
      vertex 4.51161 0.897415 0
      vertex 4.51161 0.897415 5.8
    endloop
  endfacet
  facet normal 0.634386 -0.773017 0
    outer loop
      vertex -3.03299 3.45846 0
      vertex -2.8003 3.64942 5.8
      vertex -3.03299 3.45846 5.8
    endloop
  endfacet
  facet normal 0.634386 -0.773017 0
    outer loop
      vertex -2.8003 3.64942 5.8
      vertex -3.03299 3.45846 0
      vertex -2.8003 3.64942 0
    endloop
  endfacet
  facet normal 0.98664 0.162915 0
    outer loop
      vertex -4.51161 -0.897415 5.8
      vertex -4.56065 -0.60042 0
      vertex -4.56065 -0.60042 5.8
    endloop
  endfacet
  facet normal 0.98664 0.162915 0
    outer loop
      vertex -4.56065 -0.60042 0
      vertex -4.51161 -0.897415 5.8
      vertex -4.51161 -0.897415 0
    endloop
  endfacet
  facet normal -0.0327226 0.999464 0
    outer loop
      vertex 0.300854 -4.59015 0
      vertex 0 -4.6 5.8
      vertex 0.300854 -4.59015 5.8
    endloop
  endfacet
  facet normal -0.0327226 0.999464 0
    outer loop
      vertex 0 -4.6 5.8
      vertex 0.300854 -4.59015 0
      vertex 0 -4.6 0
    endloop
  endfacet
  facet normal 0.956939 0.290288 0
    outer loop
      vertex -4.35588 -1.47862 5.8
      vertex -4.44326 -1.19057 0
      vertex -4.44326 -1.19057 5.8
    endloop
  endfacet
  facet normal 0.956939 0.290288 0
    outer loop
      vertex -4.44326 -1.19057 0
      vertex -4.35588 -1.47862 5.8
      vertex -4.35588 -1.47862 0
    endloop
  endfacet
  facet normal 0.227063 -0.97388 0
    outer loop
      vertex -1.19057 4.44326 0
      vertex -0.897415 4.51161 5.8
      vertex -1.19057 4.44326 5.8
    endloop
  endfacet
  facet normal 0.227063 -0.97388 0
    outer loop
      vertex -0.897415 4.51161 5.8
      vertex -1.19057 4.44326 0
      vertex -0.897415 4.51161 0
    endloop
  endfacet
  facet normal -0.98664 0.162915 0
    outer loop
      vertex 4.51161 -0.897415 0
      vertex 4.56065 -0.60042 5.8
      vertex 4.56065 -0.60042 0
    endloop
  endfacet
  facet normal -0.98664 0.162915 0
    outer loop
      vertex 4.56065 -0.60042 5.8
      vertex 4.51161 -0.897415 0
      vertex 4.51161 -0.897415 5.8
    endloop
  endfacet
  facet normal 0.68359 0.729867 -0
    outer loop
      vertex -3.03299 -3.45846 0
      vertex -3.25269 -3.25269 5.8
      vertex -3.03299 -3.45846 5.8
    endloop
  endfacet
  facet normal 0.68359 0.729867 0
    outer loop
      vertex -3.25269 -3.25269 5.8
      vertex -3.03299 -3.45846 0
      vertex -3.25269 -3.25269 0
    endloop
  endfacet
  facet normal -0.290288 0.956939 0
    outer loop
      vertex 1.47862 -4.35588 0
      vertex 1.19057 -4.44326 5.8
      vertex 1.47862 -4.35588 5.8
    endloop
  endfacet
  facet normal -0.290288 0.956939 0
    outer loop
      vertex 1.19057 -4.44326 5.8
      vertex 1.47862 -4.35588 0
      vertex 1.19057 -4.44326 0
    endloop
  endfacet
  facet normal 0.773017 0.634386 0
    outer loop
      vertex -3.45846 -3.03299 5.8
      vertex -3.64942 -2.8003 0
      vertex -3.64942 -2.8003 5.8
    endloop
  endfacet
  facet normal 0.773017 0.634386 0
    outer loop
      vertex -3.64942 -2.8003 0
      vertex -3.45846 -3.03299 5.8
      vertex -3.45846 -3.03299 0
    endloop
  endfacet
  facet normal 0.729867 0.68359 0
    outer loop
      vertex -3.25269 -3.25269 5.8
      vertex -3.45846 -3.03299 0
      vertex -3.45846 -3.03299 5.8
    endloop
  endfacet
  facet normal 0.729867 0.68359 0
    outer loop
      vertex -3.45846 -3.03299 0
      vertex -3.25269 -3.25269 5.8
      vertex -3.25269 -3.25269 0
    endloop
  endfacet
  facet normal -0.935908 -0.352245 0
    outer loop
      vertex 4.35588 1.47862 0
      vertex 4.24985 1.76034 5.8
      vertex 4.24985 1.76034 0
    endloop
  endfacet
  facet normal -0.935908 -0.352245 0
    outer loop
      vertex 4.24985 1.76034 5.8
      vertex 4.35588 1.47862 0
      vertex 4.35588 1.47862 5.8
    endloop
  endfacet
  facet normal -0.849194 -0.52808 0
    outer loop
      vertex 3.98372 2.3 0
      vertex 3.82476 2.55562 5.8
      vertex 3.82476 2.55562 0
    endloop
  endfacet
  facet normal -0.849194 -0.52808 0
    outer loop
      vertex 3.82476 2.55562 5.8
      vertex 3.98372 2.3 0
      vertex 3.98372 2.3 5.8
    endloop
  endfacet
  facet normal -0.910856 -0.412724 0
    outer loop
      vertex 4.24985 1.76034 0
      vertex 4.12561 2.03453 5.8
      vertex 4.12561 2.03453 0
    endloop
  endfacet
  facet normal -0.910856 -0.412724 0
    outer loop
      vertex 4.12561 2.03453 5.8
      vertex 4.24985 1.76034 0
      vertex 4.24985 1.76034 5.8
    endloop
  endfacet
  facet normal -0.812839 -0.582488 0
    outer loop
      vertex 3.82476 2.55562 0
      vertex 3.64942 2.8003 5.8
      vertex 3.64942 2.8003 0
    endloop
  endfacet
  facet normal -0.812839 -0.582488 0
    outer loop
      vertex 3.64942 2.8003 5.8
      vertex 3.82476 2.55562 0
      vertex 3.82476 2.55562 5.8
    endloop
  endfacet
  facet normal 0.412724 -0.910856 0
    outer loop
      vertex -2.03453 4.12561 0
      vertex -1.76034 4.24985 5.8
      vertex -2.03453 4.12561 5.8
    endloop
  endfacet
  facet normal 0.412724 -0.910856 0
    outer loop
      vertex -1.76034 4.24985 5.8
      vertex -2.03453 4.12561 0
      vertex -1.76034 4.24985 0
    endloop
  endfacet
  facet normal -0.471379 -0.88193 0
    outer loop
      vertex 2.03453 4.12561 0
      vertex 2.3 3.98372 5.8
      vertex 2.03453 4.12561 5.8
    endloop
  endfacet
  facet normal -0.471379 -0.88193 -0
    outer loop
      vertex 2.3 3.98372 5.8
      vertex 2.03453 4.12561 0
      vertex 2.3 3.98372 0
    endloop
  endfacet
  facet normal -0.352245 0.935908 0
    outer loop
      vertex 1.76034 -4.24985 0
      vertex 1.47862 -4.35588 5.8
      vertex 1.76034 -4.24985 5.8
    endloop
  endfacet
  facet normal -0.352245 0.935908 0
    outer loop
      vertex 1.47862 -4.35588 5.8
      vertex 1.76034 -4.24985 0
      vertex 1.47862 -4.35588 0
    endloop
  endfacet
  facet normal 0.471379 0.88193 -0
    outer loop
      vertex -2.03453 -4.12561 0
      vertex -2.3 -3.98372 5.8
      vertex -2.03453 -4.12561 5.8
    endloop
  endfacet
  facet normal 0.471379 0.88193 0
    outer loop
      vertex -2.3 -3.98372 5.8
      vertex -2.03453 -4.12561 0
      vertex -2.3 -3.98372 0
    endloop
  endfacet
  facet normal 0.773017 -0.634386 0
    outer loop
      vertex -3.64942 2.8003 5.8
      vertex -3.45846 3.03299 0
      vertex -3.45846 3.03299 5.8
    endloop
  endfacet
  facet normal 0.773017 -0.634386 0
    outer loop
      vertex -3.45846 3.03299 0
      vertex -3.64942 2.8003 5.8
      vertex -3.64942 2.8003 0
    endloop
  endfacet
  facet normal -0.88193 -0.471379 0
    outer loop
      vertex 4.12561 2.03453 0
      vertex 3.98372 2.3 5.8
      vertex 3.98372 2.3 0
    endloop
  endfacet
  facet normal -0.88193 -0.471379 0
    outer loop
      vertex 3.98372 2.3 5.8
      vertex 4.12561 2.03453 0
      vertex 4.12561 2.03453 5.8
    endloop
  endfacet
  facet normal -0.773017 0.634386 0
    outer loop
      vertex 3.45846 -3.03299 0
      vertex 3.64942 -2.8003 5.8
      vertex 3.64942 -2.8003 0
    endloop
  endfacet
  facet normal -0.773017 0.634386 0
    outer loop
      vertex 3.64942 -2.8003 5.8
      vertex 3.45846 -3.03299 0
      vertex 3.45846 -3.03299 5.8
    endloop
  endfacet
  facet normal -0.956939 0.290288 0
    outer loop
      vertex 4.35588 -1.47862 0
      vertex 4.44326 -1.19057 5.8
      vertex 4.44326 -1.19057 0
    endloop
  endfacet
  facet normal -0.956939 0.290288 0
    outer loop
      vertex 4.44326 -1.19057 5.8
      vertex 4.35588 -1.47862 0
      vertex 4.35588 -1.47862 5.8
    endloop
  endfacet
  facet normal 0.582488 -0.812839 0
    outer loop
      vertex -2.8003 3.64942 0
      vertex -2.55562 3.82476 5.8
      vertex -2.8003 3.64942 5.8
    endloop
  endfacet
  facet normal 0.582488 -0.812839 0
    outer loop
      vertex -2.55562 3.82476 5.8
      vertex -2.8003 3.64942 0
      vertex -2.55562 3.82476 0
    endloop
  endfacet
  facet normal 0.88193 -0.471379 0
    outer loop
      vertex -4.12561 2.03453 5.8
      vertex -3.98372 2.3 0
      vertex -3.98372 2.3 5.8
    endloop
  endfacet
  facet normal 0.88193 -0.471379 0
    outer loop
      vertex -3.98372 2.3 0
      vertex -4.12561 2.03453 5.8
      vertex -4.12561 2.03453 0
    endloop
  endfacet
  facet normal -0.52808 0.849194 0
    outer loop
      vertex 2.55562 -3.82476 0
      vertex 2.3 -3.98372 5.8
      vertex 2.55562 -3.82476 5.8
    endloop
  endfacet
  facet normal -0.52808 0.849194 0
    outer loop
      vertex 2.3 -3.98372 5.8
      vertex 2.55562 -3.82476 0
      vertex 2.3 -3.98372 0
    endloop
  endfacet
  facet normal 0.0980018 -0.995186 0
    outer loop
      vertex -0.60042 4.56065 0
      vertex -0.300854 4.59015 5.8
      vertex -0.60042 4.56065 5.8
    endloop
  endfacet
  facet normal 0.0980018 -0.995186 0
    outer loop
      vertex -0.300854 4.59015 5.8
      vertex -0.60042 4.56065 0
      vertex -0.300854 4.59015 0
    endloop
  endfacet
  facet normal -0.995186 0.0980018 0
    outer loop
      vertex 4.56065 -0.60042 0
      vertex 4.59015 -0.300854 5.8
      vertex 4.59015 -0.300854 0
    endloop
  endfacet
  facet normal -0.995186 0.0980018 0
    outer loop
      vertex 4.59015 -0.300854 5.8
      vertex 4.56065 -0.60042 0
      vertex 4.56065 -0.60042 5.8
    endloop
  endfacet
  facet normal 0.352245 -0.935908 0
    outer loop
      vertex -1.76034 4.24985 0
      vertex -1.47862 4.35588 5.8
      vertex -1.76034 4.24985 5.8
    endloop
  endfacet
  facet normal 0.352245 -0.935908 0
    outer loop
      vertex -1.47862 4.35588 5.8
      vertex -1.76034 4.24985 0
      vertex -1.47862 4.35588 0
    endloop
  endfacet
  facet normal 0.352245 0.935908 -0
    outer loop
      vertex -1.47862 -4.35588 0
      vertex -1.76034 -4.24985 5.8
      vertex -1.47862 -4.35588 5.8
    endloop
  endfacet
  facet normal 0.352245 0.935908 0
    outer loop
      vertex -1.76034 -4.24985 5.8
      vertex -1.47862 -4.35588 0
      vertex -1.76034 -4.24985 0
    endloop
  endfacet
  facet normal -0.52808 -0.849194 0
    outer loop
      vertex 2.3 3.98372 0
      vertex 2.55562 3.82476 5.8
      vertex 2.3 3.98372 5.8
    endloop
  endfacet
  facet normal -0.52808 -0.849194 -0
    outer loop
      vertex 2.55562 3.82476 5.8
      vertex 2.3 3.98372 0
      vertex 2.55562 3.82476 0
    endloop
  endfacet
  facet normal -0.68359 0.729867 0
    outer loop
      vertex 3.25269 -3.25269 0
      vertex 3.03299 -3.45846 5.8
      vertex 3.25269 -3.25269 5.8
    endloop
  endfacet
  facet normal -0.68359 0.729867 0
    outer loop
      vertex 3.03299 -3.45846 5.8
      vertex 3.25269 -3.25269 0
      vertex 3.03299 -3.45846 0
    endloop
  endfacet
  facet normal -0.68359 -0.729867 0
    outer loop
      vertex 3.03299 3.45846 0
      vertex 3.25269 3.25269 5.8
      vertex 3.03299 3.45846 5.8
    endloop
  endfacet
  facet normal -0.68359 -0.729867 -0
    outer loop
      vertex 3.25269 3.25269 5.8
      vertex 3.03299 3.45846 0
      vertex 3.25269 3.25269 0
    endloop
  endfacet
  facet normal 0.910856 0.412724 0
    outer loop
      vertex -4.12561 -2.03453 5.8
      vertex -4.24985 -1.76034 0
      vertex -4.24985 -1.76034 5.8
    endloop
  endfacet
  facet normal 0.910856 0.412724 0
    outer loop
      vertex -4.24985 -1.76034 0
      vertex -4.12561 -2.03453 5.8
      vertex -4.12561 -2.03453 0
    endloop
  endfacet
  facet normal 0.162915 -0.98664 0
    outer loop
      vertex -0.897415 4.51161 0
      vertex -0.60042 4.56065 5.8
      vertex -0.897415 4.51161 5.8
    endloop
  endfacet
  facet normal 0.162915 -0.98664 0
    outer loop
      vertex -0.60042 4.56065 5.8
      vertex -0.897415 4.51161 0
      vertex -0.60042 4.56065 0
    endloop
  endfacet
  facet normal 0.910856 -0.412724 0
    outer loop
      vertex -4.24985 1.76034 5.8
      vertex -4.12561 2.03453 0
      vertex -4.12561 2.03453 5.8
    endloop
  endfacet
  facet normal 0.910856 -0.412724 0
    outer loop
      vertex -4.12561 2.03453 0
      vertex -4.24985 1.76034 5.8
      vertex -4.24985 1.76034 0
    endloop
  endfacet
  facet normal -0.910856 0.412724 0
    outer loop
      vertex 4.12561 -2.03453 0
      vertex 4.24985 -1.76034 5.8
      vertex 4.24985 -1.76034 0
    endloop
  endfacet
  facet normal -0.910856 0.412724 0
    outer loop
      vertex 4.24985 -1.76034 5.8
      vertex 4.12561 -2.03453 0
      vertex 4.12561 -2.03453 5.8
    endloop
  endfacet
  facet normal 0.849194 0.52808 0
    outer loop
      vertex -3.82476 -2.55562 5.8
      vertex -3.98372 -2.3 0
      vertex -3.98372 -2.3 5.8
    endloop
  endfacet
  facet normal 0.849194 0.52808 0
    outer loop
      vertex -3.98372 -2.3 0
      vertex -3.82476 -2.55562 5.8
      vertex -3.82476 -2.55562 0
    endloop
  endfacet
  facet normal -0.634386 -0.773017 0
    outer loop
      vertex 2.8003 3.64942 0
      vertex 3.03299 3.45846 5.8
      vertex 2.8003 3.64942 5.8
    endloop
  endfacet
  facet normal -0.634386 -0.773017 -0
    outer loop
      vertex 3.03299 3.45846 5.8
      vertex 2.8003 3.64942 0
      vertex 3.03299 3.45846 0
    endloop
  endfacet
  facet normal -0.729867 -0.68359 0
    outer loop
      vertex 3.45846 3.03299 0
      vertex 3.25269 3.25269 5.8
      vertex 3.25269 3.25269 0
    endloop
  endfacet
  facet normal -0.729867 -0.68359 0
    outer loop
      vertex 3.25269 3.25269 5.8
      vertex 3.45846 3.03299 0
      vertex 3.45846 3.03299 5.8
    endloop
  endfacet
  facet normal -0.471379 0.88193 0
    outer loop
      vertex 2.3 -3.98372 0
      vertex 2.03453 -4.12561 5.8
      vertex 2.3 -3.98372 5.8
    endloop
  endfacet
  facet normal -0.471379 0.88193 0
    outer loop
      vertex 2.03453 -4.12561 5.8
      vertex 2.3 -3.98372 0
      vertex 2.03453 -4.12561 0
    endloop
  endfacet
  facet normal -0.0327226 -0.999464 0
    outer loop
      vertex 0 4.6 0
      vertex 0.300854 4.59015 5.8
      vertex 0 4.6 5.8
    endloop
  endfacet
  facet normal -0.0327226 -0.999464 -0
    outer loop
      vertex 0.300854 4.59015 5.8
      vertex 0 4.6 0
      vertex 0.300854 4.59015 0
    endloop
  endfacet
  facet normal 0.412724 0.910856 -0
    outer loop
      vertex -1.76034 -4.24985 0
      vertex -2.03453 -4.12561 5.8
      vertex -1.76034 -4.24985 5.8
    endloop
  endfacet
  facet normal 0.412724 0.910856 0
    outer loop
      vertex -2.03453 -4.12561 5.8
      vertex -1.76034 -4.24985 0
      vertex -2.03453 -4.12561 0
    endloop
  endfacet
  facet normal -0.88193 0.471379 0
    outer loop
      vertex 3.98372 -2.3 0
      vertex 4.12561 -2.03453 5.8
      vertex 4.12561 -2.03453 0
    endloop
  endfacet
  facet normal -0.88193 0.471379 0
    outer loop
      vertex 4.12561 -2.03453 5.8
      vertex 3.98372 -2.3 0
      vertex 3.98372 -2.3 5.8
    endloop
  endfacet
  facet normal -0.582488 0.812839 0
    outer loop
      vertex 2.8003 -3.64942 0
      vertex 2.55562 -3.82476 5.8
      vertex 2.8003 -3.64942 5.8
    endloop
  endfacet
  facet normal -0.582488 0.812839 0
    outer loop
      vertex 2.55562 -3.82476 5.8
      vertex 2.8003 -3.64942 0
      vertex 2.55562 -3.82476 0
    endloop
  endfacet
  facet normal 0.995186 0.0980018 0
    outer loop
      vertex -4.56065 -0.60042 5.8
      vertex -4.59015 -0.300854 0
      vertex -4.59015 -0.300854 5.8
    endloop
  endfacet
  facet normal 0.995186 0.0980018 0
    outer loop
      vertex -4.59015 -0.300854 0
      vertex -4.56065 -0.60042 5.8
      vertex -4.56065 -0.60042 0
    endloop
  endfacet
  facet normal 0.97388 0.227063 0
    outer loop
      vertex -4.44326 -1.19057 5.8
      vertex -4.51161 -0.897415 0
      vertex -4.51161 -0.897415 5.8
    endloop
  endfacet
  facet normal 0.97388 0.227063 0
    outer loop
      vertex -4.51161 -0.897415 0
      vertex -4.44326 -1.19057 5.8
      vertex -4.44326 -1.19057 0
    endloop
  endfacet
  facet normal 0.68359 -0.729867 0
    outer loop
      vertex -3.25269 3.25269 0
      vertex -3.03299 3.45846 5.8
      vertex -3.25269 3.25269 5.8
    endloop
  endfacet
  facet normal 0.68359 -0.729867 0
    outer loop
      vertex -3.03299 3.45846 5.8
      vertex -3.25269 3.25269 0
      vertex -3.03299 3.45846 0
    endloop
  endfacet
  facet normal 0.999464 -0.0327226 0
    outer loop
      vertex -4.6 0 5.8
      vertex -4.59015 0.300854 0
      vertex -4.59015 0.300854 5.8
    endloop
  endfacet
  facet normal 0.999464 -0.0327226 0
    outer loop
      vertex -4.59015 0.300854 0
      vertex -4.6 0 5.8
      vertex -4.6 0 0
    endloop
  endfacet
  facet normal 0.52808 -0.849194 0
    outer loop
      vertex -2.55562 3.82476 0
      vertex -2.3 3.98372 5.8
      vertex -2.55562 3.82476 5.8
    endloop
  endfacet
  facet normal 0.52808 -0.849194 0
    outer loop
      vertex -2.3 3.98372 5.8
      vertex -2.55562 3.82476 0
      vertex -2.3 3.98372 0
    endloop
  endfacet
  facet normal 0.290288 0.956939 -0
    outer loop
      vertex -1.19057 -4.44326 0
      vertex -1.47862 -4.35588 5.8
      vertex -1.19057 -4.44326 5.8
    endloop
  endfacet
  facet normal 0.290288 0.956939 0
    outer loop
      vertex -1.47862 -4.35588 5.8
      vertex -1.19057 -4.44326 0
      vertex -1.47862 -4.35588 0
    endloop
  endfacet
  facet normal -0.956939 -0.290288 0
    outer loop
      vertex 4.44326 1.19057 0
      vertex 4.35588 1.47862 5.8
      vertex 4.35588 1.47862 0
    endloop
  endfacet
  facet normal -0.956939 -0.290288 0
    outer loop
      vertex 4.35588 1.47862 5.8
      vertex 4.44326 1.19057 0
      vertex 4.44326 1.19057 5.8
    endloop
  endfacet
  facet normal -0.97388 0.227063 0
    outer loop
      vertex 4.44326 -1.19057 0
      vertex 4.51161 -0.897415 5.8
      vertex 4.51161 -0.897415 0
    endloop
  endfacet
  facet normal -0.97388 0.227063 0
    outer loop
      vertex 4.51161 -0.897415 5.8
      vertex 4.44326 -1.19057 0
      vertex 4.44326 -1.19057 5.8
    endloop
  endfacet
  facet normal -0.0980018 -0.995186 0
    outer loop
      vertex 0.300854 4.59015 0
      vertex 0.60042 4.56065 5.8
      vertex 0.300854 4.59015 5.8
    endloop
  endfacet
  facet normal -0.0980018 -0.995186 -0
    outer loop
      vertex 0.60042 4.56065 5.8
      vertex 0.300854 4.59015 0
      vertex 0.60042 4.56065 0
    endloop
  endfacet
  facet normal -0.352245 -0.935908 0
    outer loop
      vertex 1.47862 4.35588 0
      vertex 1.76034 4.24985 5.8
      vertex 1.47862 4.35588 5.8
    endloop
  endfacet
  facet normal -0.352245 -0.935908 -0
    outer loop
      vertex 1.76034 4.24985 5.8
      vertex 1.47862 4.35588 0
      vertex 1.76034 4.24985 0
    endloop
  endfacet
  facet normal -0.999464 0.0327226 0
    outer loop
      vertex 4.59015 -0.300854 0
      vertex 4.6 0 5.8
      vertex 4.6 0 0
    endloop
  endfacet
  facet normal -0.999464 0.0327226 0
    outer loop
      vertex 4.6 0 5.8
      vertex 4.59015 -0.300854 0
      vertex 4.59015 -0.300854 5.8
    endloop
  endfacet
  facet normal -0.162915 -0.98664 0
    outer loop
      vertex 0.60042 4.56065 0
      vertex 0.897415 4.51161 5.8
      vertex 0.60042 4.56065 5.8
    endloop
  endfacet
  facet normal -0.162915 -0.98664 -0
    outer loop
      vertex 0.897415 4.51161 5.8
      vertex 0.60042 4.56065 0
      vertex 0.897415 4.51161 0
    endloop
  endfacet
  facet normal -0.849194 0.52808 0
    outer loop
      vertex 3.82476 -2.55562 0
      vertex 3.98372 -2.3 5.8
      vertex 3.98372 -2.3 0
    endloop
  endfacet
  facet normal -0.849194 0.52808 0
    outer loop
      vertex 3.98372 -2.3 5.8
      vertex 3.82476 -2.55562 0
      vertex 3.82476 -2.55562 5.8
    endloop
  endfacet
  facet normal -0.162915 0.98664 0
    outer loop
      vertex 0.897415 -4.51161 0
      vertex 0.60042 -4.56065 5.8
      vertex 0.897415 -4.51161 5.8
    endloop
  endfacet
  facet normal -0.162915 0.98664 0
    outer loop
      vertex 0.60042 -4.56065 5.8
      vertex 0.897415 -4.51161 0
      vertex 0.60042 -4.56065 0
    endloop
  endfacet
  facet normal -0.0980018 0.995186 0
    outer loop
      vertex 0.60042 -4.56065 0
      vertex 0.300854 -4.59015 5.8
      vertex 0.60042 -4.56065 5.8
    endloop
  endfacet
  facet normal -0.0980018 0.995186 0
    outer loop
      vertex 0.300854 -4.59015 5.8
      vertex 0.60042 -4.56065 0
      vertex 0.300854 -4.59015 0
    endloop
  endfacet
  facet normal -0.412724 -0.910856 0
    outer loop
      vertex 1.76034 4.24985 0
      vertex 2.03453 4.12561 5.8
      vertex 1.76034 4.24985 5.8
    endloop
  endfacet
  facet normal -0.412724 -0.910856 -0
    outer loop
      vertex 2.03453 4.12561 5.8
      vertex 1.76034 4.24985 0
      vertex 2.03453 4.12561 0
    endloop
  endfacet
  facet normal -0.412724 0.910856 0
    outer loop
      vertex 2.03453 -4.12561 0
      vertex 1.76034 -4.24985 5.8
      vertex 2.03453 -4.12561 5.8
    endloop
  endfacet
  facet normal -0.412724 0.910856 0
    outer loop
      vertex 1.76034 -4.24985 5.8
      vertex 2.03453 -4.12561 0
      vertex 1.76034 -4.24985 0
    endloop
  endfacet
  facet normal 0.812839 -0.582488 0
    outer loop
      vertex -3.82476 2.55562 5.8
      vertex -3.64942 2.8003 0
      vertex -3.64942 2.8003 5.8
    endloop
  endfacet
  facet normal 0.812839 -0.582488 0
    outer loop
      vertex -3.64942 2.8003 0
      vertex -3.82476 2.55562 5.8
      vertex -3.82476 2.55562 0
    endloop
  endfacet
  facet normal 0.97388 -0.227063 0
    outer loop
      vertex -4.51161 0.897415 5.8
      vertex -4.44326 1.19057 0
      vertex -4.44326 1.19057 5.8
    endloop
  endfacet
  facet normal 0.97388 -0.227063 0
    outer loop
      vertex -4.44326 1.19057 0
      vertex -4.51161 0.897415 5.8
      vertex -4.51161 0.897415 0
    endloop
  endfacet
  facet normal 0.634386 0.773017 -0
    outer loop
      vertex -2.8003 -3.64942 0
      vertex -3.03299 -3.45846 5.8
      vertex -2.8003 -3.64942 5.8
    endloop
  endfacet
  facet normal 0.634386 0.773017 0
    outer loop
      vertex -3.03299 -3.45846 5.8
      vertex -2.8003 -3.64942 0
      vertex -3.03299 -3.45846 0
    endloop
  endfacet
  facet normal -0.773017 -0.634386 0
    outer loop
      vertex 3.64942 2.8003 0
      vertex 3.45846 3.03299 5.8
      vertex 3.45846 3.03299 0
    endloop
  endfacet
  facet normal -0.773017 -0.634386 0
    outer loop
      vertex 3.45846 3.03299 5.8
      vertex 3.64942 2.8003 0
      vertex 3.64942 2.8003 5.8
    endloop
  endfacet
  facet normal -0.582488 -0.812839 0
    outer loop
      vertex 2.55562 3.82476 0
      vertex 2.8003 3.64942 5.8
      vertex 2.55562 3.82476 5.8
    endloop
  endfacet
  facet normal -0.582488 -0.812839 -0
    outer loop
      vertex 2.8003 3.64942 5.8
      vertex 2.55562 3.82476 0
      vertex 2.8003 3.64942 0
    endloop
  endfacet
  facet normal 0.98664 -0.162915 0
    outer loop
      vertex -4.56065 0.60042 5.8
      vertex -4.51161 0.897415 0
      vertex -4.51161 0.897415 5.8
    endloop
  endfacet
  facet normal 0.98664 -0.162915 0
    outer loop
      vertex -4.51161 0.897415 0
      vertex -4.56065 0.60042 5.8
      vertex -4.56065 0.60042 0
    endloop
  endfacet
  facet normal -0.729867 0.68359 0
    outer loop
      vertex 3.25269 -3.25269 0
      vertex 3.45846 -3.03299 5.8
      vertex 3.45846 -3.03299 0
    endloop
  endfacet
  facet normal -0.729867 0.68359 0
    outer loop
      vertex 3.45846 -3.03299 5.8
      vertex 3.25269 -3.25269 0
      vertex 3.25269 -3.25269 5.8
    endloop
  endfacet
  facet normal -0.935908 0.352245 0
    outer loop
      vertex 4.24985 -1.76034 0
      vertex 4.35588 -1.47862 5.8
      vertex 4.35588 -1.47862 0
    endloop
  endfacet
  facet normal -0.935908 0.352245 0
    outer loop
      vertex 4.35588 -1.47862 5.8
      vertex 4.24985 -1.76034 0
      vertex 4.24985 -1.76034 5.8
    endloop
  endfacet
  facet normal -0.812839 0.582488 0
    outer loop
      vertex 3.64942 -2.8003 0
      vertex 3.82476 -2.55562 5.8
      vertex 3.82476 -2.55562 0
    endloop
  endfacet
  facet normal -0.812839 0.582488 0
    outer loop
      vertex 3.82476 -2.55562 5.8
      vertex 3.64942 -2.8003 0
      vertex 3.64942 -2.8003 5.8
    endloop
  endfacet
  facet normal -0.227063 0.97388 0
    outer loop
      vertex 1.19057 -4.44326 0
      vertex 0.897415 -4.51161 5.8
      vertex 1.19057 -4.44326 5.8
    endloop
  endfacet
  facet normal -0.227063 0.97388 0
    outer loop
      vertex 0.897415 -4.51161 5.8
      vertex 1.19057 -4.44326 0
      vertex 0.897415 -4.51161 0
    endloop
  endfacet
  facet normal 0.227063 0.97388 -0
    outer loop
      vertex -0.897415 -4.51161 0
      vertex -1.19057 -4.44326 5.8
      vertex -0.897415 -4.51161 5.8
    endloop
  endfacet
  facet normal 0.227063 0.97388 0
    outer loop
      vertex -1.19057 -4.44326 5.8
      vertex -0.897415 -4.51161 0
      vertex -1.19057 -4.44326 0
    endloop
  endfacet
  facet normal 0.162915 0.98664 -0
    outer loop
      vertex -0.60042 -4.56065 0
      vertex -0.897415 -4.51161 5.8
      vertex -0.60042 -4.56065 5.8
    endloop
  endfacet
  facet normal 0.162915 0.98664 0
    outer loop
      vertex -0.897415 -4.51161 5.8
      vertex -0.60042 -4.56065 0
      vertex -0.897415 -4.51161 0
    endloop
  endfacet
  facet normal 0.999464 0.0327226 0
    outer loop
      vertex -4.59015 -0.300854 5.8
      vertex -4.6 0 0
      vertex -4.6 0 5.8
    endloop
  endfacet
  facet normal 0.999464 0.0327226 0
    outer loop
      vertex -4.6 0 0
      vertex -4.59015 -0.300854 5.8
      vertex -4.59015 -0.300854 0
    endloop
  endfacet
  facet normal 0.0327226 -0.999464 0
    outer loop
      vertex -0.300854 4.59015 0
      vertex 0 4.6 5.8
      vertex -0.300854 4.59015 5.8
    endloop
  endfacet
  facet normal 0.0327226 -0.999464 0
    outer loop
      vertex 0 4.6 5.8
      vertex -0.300854 4.59015 0
      vertex 0 4.6 0
    endloop
  endfacet
  facet normal 0.729867 -0.68359 0
    outer loop
      vertex -3.45846 3.03299 5.8
      vertex -3.25269 3.25269 0
      vertex -3.25269 3.25269 5.8
    endloop
  endfacet
  facet normal 0.729867 -0.68359 0
    outer loop
      vertex -3.25269 3.25269 0
      vertex -3.45846 3.03299 5.8
      vertex -3.45846 3.03299 0
    endloop
  endfacet
  facet normal 0.0327226 0.999464 -0
    outer loop
      vertex 0 -4.6 0
      vertex -0.300854 -4.59015 5.8
      vertex 0 -4.6 5.8
    endloop
  endfacet
  facet normal 0.0327226 0.999464 0
    outer loop
      vertex -0.300854 -4.59015 5.8
      vertex 0 -4.6 0
      vertex -0.300854 -4.59015 0
    endloop
  endfacet
  facet normal 0.956939 -0.290288 0
    outer loop
      vertex -4.44326 1.19057 5.8
      vertex -4.35588 1.47862 0
      vertex -4.35588 1.47862 5.8
    endloop
  endfacet
  facet normal 0.956939 -0.290288 0
    outer loop
      vertex -4.35588 1.47862 0
      vertex -4.44326 1.19057 5.8
      vertex -4.44326 1.19057 0
    endloop
  endfacet
  facet normal -0.227063 -0.97388 0
    outer loop
      vertex 0.897415 4.51161 0
      vertex 1.19057 4.44326 5.8
      vertex 0.897415 4.51161 5.8
    endloop
  endfacet
  facet normal -0.227063 -0.97388 -0
    outer loop
      vertex 1.19057 4.44326 5.8
      vertex 0.897415 4.51161 0
      vertex 1.19057 4.44326 0
    endloop
  endfacet
  facet normal 0.471379 -0.88193 0
    outer loop
      vertex -2.3 3.98372 0
      vertex -2.03453 4.12561 5.8
      vertex -2.3 3.98372 5.8
    endloop
  endfacet
  facet normal 0.471379 -0.88193 0
    outer loop
      vertex -2.03453 4.12561 5.8
      vertex -2.3 3.98372 0
      vertex -2.03453 4.12561 0
    endloop
  endfacet
  facet normal -0.634386 0.773017 0
    outer loop
      vertex 3.03299 -3.45846 0
      vertex 2.8003 -3.64942 5.8
      vertex 3.03299 -3.45846 5.8
    endloop
  endfacet
  facet normal -0.634386 0.773017 0
    outer loop
      vertex 2.8003 -3.64942 5.8
      vertex 3.03299 -3.45846 0
      vertex 2.8003 -3.64942 0
    endloop
  endfacet
  facet normal -0.290288 -0.956939 0
    outer loop
      vertex 1.19057 4.44326 0
      vertex 1.47862 4.35588 5.8
      vertex 1.19057 4.44326 5.8
    endloop
  endfacet
  facet normal -0.290288 -0.956939 -0
    outer loop
      vertex 1.47862 4.35588 5.8
      vertex 1.19057 4.44326 0
      vertex 1.47862 4.35588 0
    endloop
  endfacet
  facet normal 0.0980018 0.995186 -0
    outer loop
      vertex -0.300854 -4.59015 0
      vertex -0.60042 -4.56065 5.8
      vertex -0.300854 -4.59015 5.8
    endloop
  endfacet
  facet normal 0.0980018 0.995186 0
    outer loop
      vertex -0.60042 -4.56065 5.8
      vertex -0.300854 -4.59015 0
      vertex -0.60042 -4.56065 0
    endloop
  endfacet
  facet normal 0.812839 0.582488 0
    outer loop
      vertex -3.64942 -2.8003 5.8
      vertex -3.82476 -2.55562 0
      vertex -3.82476 -2.55562 5.8
    endloop
  endfacet
  facet normal 0.812839 0.582488 0
    outer loop
      vertex -3.82476 -2.55562 0
      vertex -3.64942 -2.8003 5.8
      vertex -3.64942 -2.8003 0
    endloop
  endfacet
  facet normal 0.849194 -0.52808 0
    outer loop
      vertex -3.98372 2.3 5.8
      vertex -3.82476 2.55562 0
      vertex -3.82476 2.55562 5.8
    endloop
  endfacet
  facet normal 0.849194 -0.52808 0
    outer loop
      vertex -3.82476 2.55562 0
      vertex -3.98372 2.3 5.8
      vertex -3.98372 2.3 0
    endloop
  endfacet
  facet normal 0.290288 -0.956939 0
    outer loop
      vertex -1.47862 4.35588 0
      vertex -1.19057 4.44326 5.8
      vertex -1.47862 4.35588 5.8
    endloop
  endfacet
  facet normal 0.290288 -0.956939 0
    outer loop
      vertex -1.19057 4.44326 5.8
      vertex -1.47862 4.35588 0
      vertex -1.19057 4.44326 0
    endloop
  endfacet
  facet normal 0.935908 -0.352245 0
    outer loop
      vertex -4.35588 1.47862 5.8
      vertex -4.24985 1.76034 0
      vertex -4.24985 1.76034 5.8
    endloop
  endfacet
  facet normal 0.935908 -0.352245 0
    outer loop
      vertex -4.24985 1.76034 0
      vertex -4.35588 1.47862 5.8
      vertex -4.35588 1.47862 0
    endloop
  endfacet
  facet normal 0.995186 -0.0980018 0
    outer loop
      vertex -4.59015 0.300854 5.8
      vertex -4.56065 0.60042 0
      vertex -4.56065 0.60042 5.8
    endloop
  endfacet
  facet normal 0.995186 -0.0980018 0
    outer loop
      vertex -4.56065 0.60042 0
      vertex -4.59015 0.300854 5.8
      vertex -4.59015 0.300854 0
    endloop
  endfacet
  facet normal 0.935908 0.352245 0
    outer loop
      vertex -4.24985 -1.76034 5.8
      vertex -4.35588 -1.47862 0
      vertex -4.35588 -1.47862 5.8
    endloop
  endfacet
  facet normal 0.935908 0.352245 0
    outer loop
      vertex -4.35588 -1.47862 0
      vertex -4.24985 -1.76034 5.8
      vertex -4.24985 -1.76034 0
    endloop
  endfacet
  facet normal 0.88193 0.471379 0
    outer loop
      vertex -3.98372 -2.3 5.8
      vertex -4.12561 -2.03453 0
      vertex -4.12561 -2.03453 5.8
    endloop
  endfacet
  facet normal 0.88193 0.471379 0
    outer loop
      vertex -4.12561 -2.03453 0
      vertex -3.98372 -2.3 5.8
      vertex -3.98372 -2.3 0
    endloop
  endfacet
  facet normal 0.582488 0.812839 -0
    outer loop
      vertex -2.55562 -3.82476 0
      vertex -2.8003 -3.64942 5.8
      vertex -2.55562 -3.82476 5.8
    endloop
  endfacet
  facet normal 0.582488 0.812839 0
    outer loop
      vertex -2.8003 -3.64942 5.8
      vertex -2.55562 -3.82476 0
      vertex -2.8003 -3.64942 0
    endloop
  endfacet
  facet normal 0.52808 0.849194 -0
    outer loop
      vertex -2.3 -3.98372 0
      vertex -2.55562 -3.82476 5.8
      vertex -2.3 -3.98372 5.8
    endloop
  endfacet
  facet normal 0.52808 0.849194 0
    outer loop
      vertex -2.55562 -3.82476 5.8
      vertex -2.3 -3.98372 0
      vertex -2.55562 -3.82476 0
    endloop
  endfacet
  facet normal -0.5 0.866026 0
    outer loop
      vertex 6.8 -3.92598 5.8
      vertex 0 -7.85196 13
      vertex 6.8 -3.92598 13
    endloop
  endfacet
  facet normal -0.5 0.866026 0
    outer loop
      vertex 0 -7.85196 13
      vertex 6.8 -3.92598 5.8
      vertex 0 -7.85196 5.8
    endloop
  endfacet
  facet normal -1 0 0
    outer loop
      vertex 6.8 -3.92598 5.8
      vertex 6.8 3.92598 13
      vertex 6.8 3.92598 5.8
    endloop
  endfacet
  facet normal -1 -0 0
    outer loop
      vertex 6.8 3.92598 13
      vertex 6.8 -3.92598 5.8
      vertex 6.8 -3.92598 13
    endloop
  endfacet
  facet normal 0.5 -0.866026 0
    outer loop
      vertex -6.8 3.92598 5.8
      vertex 0 7.85196 13
      vertex -6.8 3.92598 13
    endloop
  endfacet
  facet normal 0.5 -0.866026 0
    outer loop
      vertex 0 7.85196 13
      vertex -6.8 3.92598 5.8
      vertex 0 7.85196 5.8
    endloop
  endfacet
  facet normal -0.5 -0.866026 0
    outer loop
      vertex 0 7.85196 5.8
      vertex 6.8 3.92598 13
      vertex 0 7.85196 13
    endloop
  endfacet
  facet normal -0.5 -0.866026 -0
    outer loop
      vertex 6.8 3.92598 13
      vertex 0 7.85196 5.8
      vertex 6.8 3.92598 5.8
    endloop
  endfacet
  facet normal 1 -0 0
    outer loop
      vertex -6.8 -3.92598 13
      vertex -6.8 3.92598 5.8
      vertex -6.8 3.92598 13
    endloop
  endfacet
  facet normal 1 0 0
    outer loop
      vertex -6.8 3.92598 5.8
      vertex -6.8 -3.92598 13
      vertex -6.8 -3.92598 5.8
    endloop
  endfacet
  facet normal 0.5 0.866026 -0
    outer loop
      vertex 0 -7.85196 5.8
      vertex -6.8 -3.92598 13
      vertex 0 -7.85196 13
    endloop
  endfacet
  facet normal 0.5 0.866026 0
    outer loop
      vertex -6.8 -3.92598 13
      vertex 0 -7.85196 5.8
      vertex -6.8 -3.92598 5.8
    endloop
  endfacet
  facet normal 0 0 1
    outer loop
      vertex 6.8 3.92598 5.8
      vertex 4.6 0 5.8
      vertex 6.8 -3.92598 5.8
    endloop
  endfacet
  facet normal 0 0 1
    outer loop
      vertex 6.8 3.92598 5.8
      vertex 4.59015 0.300854 5.8
      vertex 4.6 0 5.8
    endloop
  endfacet
  facet normal 0 0 1
    outer loop
      vertex 6.8 3.92598 5.8
      vertex 4.56065 0.60042 5.8
      vertex 4.59015 0.300854 5.8
    endloop
  endfacet
  facet normal 0 0 1
    outer loop
      vertex 6.8 3.92598 5.8
      vertex 4.51161 0.897415 5.8
      vertex 4.56065 0.60042 5.8
    endloop
  endfacet
  facet normal 0 0 1
    outer loop
      vertex 6.8 3.92598 5.8
      vertex 4.44326 1.19057 5.8
      vertex 4.51161 0.897415 5.8
    endloop
  endfacet
  facet normal 0 0 1
    outer loop
      vertex 6.8 3.92598 5.8
      vertex 4.35588 1.47862 5.8
      vertex 4.44326 1.19057 5.8
    endloop
  endfacet
  facet normal 0 0 1
    outer loop
      vertex 6.8 3.92598 5.8
      vertex 4.24985 1.76034 5.8
      vertex 4.35588 1.47862 5.8
    endloop
  endfacet
  facet normal 0 0 1
    outer loop
      vertex 6.8 3.92598 5.8
      vertex 4.12561 2.03453 5.8
      vertex 4.24985 1.76034 5.8
    endloop
  endfacet
  facet normal 0 0 1
    outer loop
      vertex 6.8 3.92598 5.8
      vertex 3.98372 2.3 5.8
      vertex 4.12561 2.03453 5.8
    endloop
  endfacet
  facet normal 0 0 1
    outer loop
      vertex 6.8 3.92598 5.8
      vertex 3.82476 2.55562 5.8
      vertex 3.98372 2.3 5.8
    endloop
  endfacet
  facet normal 0 0 1
    outer loop
      vertex 6.8 3.92598 5.8
      vertex 3.64942 2.8003 5.8
      vertex 3.82476 2.55562 5.8
    endloop
  endfacet
  facet normal 0 0 1
    outer loop
      vertex 6.8 3.92598 5.8
      vertex 3.45846 3.03299 5.8
      vertex 3.64942 2.8003 5.8
    endloop
  endfacet
  facet normal 0 0 1
    outer loop
      vertex 6.8 3.92598 5.8
      vertex 3.25269 3.25269 5.8
      vertex 3.45846 3.03299 5.8
    endloop
  endfacet
  facet normal 0 0 1
    outer loop
      vertex 6.8 3.92598 5.8
      vertex 3.03299 3.45846 5.8
      vertex 3.25269 3.25269 5.8
    endloop
  endfacet
  facet normal 0 0 1
    outer loop
      vertex 6.8 3.92598 5.8
      vertex 2.8003 3.64942 5.8
      vertex 3.03299 3.45846 5.8
    endloop
  endfacet
  facet normal 0 0 1
    outer loop
      vertex 6.8 3.92598 5.8
      vertex 2.55562 3.82476 5.8
      vertex 2.8003 3.64942 5.8
    endloop
  endfacet
  facet normal 0 0 1
    outer loop
      vertex 6.8 3.92598 5.8
      vertex 2.3 3.98372 5.8
      vertex 2.55562 3.82476 5.8
    endloop
  endfacet
  facet normal 0 0 1
    outer loop
      vertex 0 7.85196 5.8
      vertex 2.3 3.98372 5.8
      vertex 6.8 3.92598 5.8
    endloop
  endfacet
  facet normal 0 0 1
    outer loop
      vertex 2.3 3.98372 5.8
      vertex 0 7.85196 5.8
      vertex 2.03453 4.12561 5.8
    endloop
  endfacet
  facet normal 0 0 1
    outer loop
      vertex 2.03453 4.12561 5.8
      vertex 0 7.85196 5.8
      vertex 1.76034 4.24985 5.8
    endloop
  endfacet
  facet normal 0 0 1
    outer loop
      vertex 1.76034 4.24985 5.8
      vertex 0 7.85196 5.8
      vertex 1.47862 4.35588 5.8
    endloop
  endfacet
  facet normal 0 0 1
    outer loop
      vertex 1.47862 4.35588 5.8
      vertex 0 7.85196 5.8
      vertex 1.19057 4.44326 5.8
    endloop
  endfacet
  facet normal 0 0 1
    outer loop
      vertex 1.19057 4.44326 5.8
      vertex 0 7.85196 5.8
      vertex 0.897415 4.51161 5.8
    endloop
  endfacet
  facet normal 0 0 1
    outer loop
      vertex 0.897415 4.51161 5.8
      vertex 0 7.85196 5.8
      vertex 0.60042 4.56065 5.8
    endloop
  endfacet
  facet normal 0 0 1
    outer loop
      vertex 0 7.85196 5.8
      vertex 0.300854 4.59015 5.8
      vertex 0.60042 4.56065 5.8
    endloop
  endfacet
  facet normal 0 0 1
    outer loop
      vertex 0 7.85196 5.8
      vertex 0 4.6 5.8
      vertex 0.300854 4.59015 5.8
    endloop
  endfacet
  facet normal 0 0 1
    outer loop
      vertex 0 7.85196 5.8
      vertex -0.300854 4.59015 5.8
      vertex 0 4.6 5.8
    endloop
  endfacet
  facet normal 0 0 1
    outer loop
      vertex 0 7.85196 5.8
      vertex -0.60042 4.56065 5.8
      vertex -0.300854 4.59015 5.8
    endloop
  endfacet
  facet normal 0 0 1
    outer loop
      vertex 0 7.85196 5.8
      vertex -0.897415 4.51161 5.8
      vertex -0.60042 4.56065 5.8
    endloop
  endfacet
  facet normal 0 0 1
    outer loop
      vertex 0 7.85196 5.8
      vertex -1.19057 4.44326 5.8
      vertex -0.897415 4.51161 5.8
    endloop
  endfacet
  facet normal 0 0 1
    outer loop
      vertex 0 7.85196 5.8
      vertex -1.47862 4.35588 5.8
      vertex -1.19057 4.44326 5.8
    endloop
  endfacet
  facet normal 0 0 1
    outer loop
      vertex 0 7.85196 5.8
      vertex -1.76034 4.24985 5.8
      vertex -1.47862 4.35588 5.8
    endloop
  endfacet
  facet normal 0 0 1
    outer loop
      vertex 0 7.85196 5.8
      vertex -2.03453 4.12561 5.8
      vertex -1.76034 4.24985 5.8
    endloop
  endfacet
  facet normal 0 0 1
    outer loop
      vertex 0 7.85196 5.8
      vertex -2.3 3.98372 5.8
      vertex -2.03453 4.12561 5.8
    endloop
  endfacet
  facet normal 0 0 1
    outer loop
      vertex -6.8 3.92598 5.8
      vertex -2.3 3.98372 5.8
      vertex 0 7.85196 5.8
    endloop
  endfacet
  facet normal 0 0 1
    outer loop
      vertex -2.3 3.98372 5.8
      vertex -6.8 3.92598 5.8
      vertex -2.55562 3.82476 5.8
    endloop
  endfacet
  facet normal 0 0 1
    outer loop
      vertex -2.55562 3.82476 5.8
      vertex -6.8 3.92598 5.8
      vertex -2.8003 3.64942 5.8
    endloop
  endfacet
  facet normal 0 0 1
    outer loop
      vertex -2.8003 3.64942 5.8
      vertex -6.8 3.92598 5.8
      vertex -3.03299 3.45846 5.8
    endloop
  endfacet
  facet normal 0 0 1
    outer loop
      vertex -3.03299 3.45846 5.8
      vertex -6.8 3.92598 5.8
      vertex -3.25269 3.25269 5.8
    endloop
  endfacet
  facet normal 0 0 1
    outer loop
      vertex -3.25269 3.25269 5.8
      vertex -6.8 3.92598 5.8
      vertex -3.45846 3.03299 5.8
    endloop
  endfacet
  facet normal 0 0 1
    outer loop
      vertex -4.59015 0.300854 5.8
      vertex -6.8 3.92598 5.8
      vertex -4.6 0 5.8
    endloop
  endfacet
  facet normal 0 0 1
    outer loop
      vertex -4.56065 0.60042 5.8
      vertex -6.8 3.92598 5.8
      vertex -4.59015 0.300854 5.8
    endloop
  endfacet
  facet normal 0 0 1
    outer loop
      vertex -4.51161 0.897415 5.8
      vertex -6.8 3.92598 5.8
      vertex -4.56065 0.60042 5.8
    endloop
  endfacet
  facet normal 0 0 1
    outer loop
      vertex -4.44326 1.19057 5.8
      vertex -6.8 3.92598 5.8
      vertex -4.51161 0.897415 5.8
    endloop
  endfacet
  facet normal 0 0 1
    outer loop
      vertex -4.35588 1.47862 5.8
      vertex -6.8 3.92598 5.8
      vertex -4.44326 1.19057 5.8
    endloop
  endfacet
  facet normal 0 0 1
    outer loop
      vertex -4.24985 1.76034 5.8
      vertex -6.8 3.92598 5.8
      vertex -4.35588 1.47862 5.8
    endloop
  endfacet
  facet normal 0 0 1
    outer loop
      vertex -4.12561 2.03453 5.8
      vertex -6.8 3.92598 5.8
      vertex -4.24985 1.76034 5.8
    endloop
  endfacet
  facet normal 0 0 1
    outer loop
      vertex -3.98372 2.3 5.8
      vertex -6.8 3.92598 5.8
      vertex -4.12561 2.03453 5.8
    endloop
  endfacet
  facet normal 0 0 1
    outer loop
      vertex -3.82476 2.55562 5.8
      vertex -6.8 3.92598 5.8
      vertex -3.98372 2.3 5.8
    endloop
  endfacet
  facet normal 0 0 1
    outer loop
      vertex -3.64942 2.8003 5.8
      vertex -6.8 3.92598 5.8
      vertex -3.82476 2.55562 5.8
    endloop
  endfacet
  facet normal 0 0 1
    outer loop
      vertex -3.45846 3.03299 5.8
      vertex -6.8 3.92598 5.8
      vertex -3.64942 2.8003 5.8
    endloop
  endfacet
  facet normal -0 0 1
    outer loop
      vertex 4.59015 -0.300854 5.8
      vertex 6.8 -3.92598 5.8
      vertex 4.6 0 5.8
    endloop
  endfacet
  facet normal -0 0 1
    outer loop
      vertex 4.56065 -0.60042 5.8
      vertex 6.8 -3.92598 5.8
      vertex 4.59015 -0.300854 5.8
    endloop
  endfacet
  facet normal -0 0 1
    outer loop
      vertex 4.51161 -0.897415 5.8
      vertex 6.8 -3.92598 5.8
      vertex 4.56065 -0.60042 5.8
    endloop
  endfacet
  facet normal -0 0 1
    outer loop
      vertex 4.44326 -1.19057 5.8
      vertex 6.8 -3.92598 5.8
      vertex 4.51161 -0.897415 5.8
    endloop
  endfacet
  facet normal -0 0 1
    outer loop
      vertex 4.35588 -1.47862 5.8
      vertex 6.8 -3.92598 5.8
      vertex 4.44326 -1.19057 5.8
    endloop
  endfacet
  facet normal -0 0 1
    outer loop
      vertex 4.24985 -1.76034 5.8
      vertex 6.8 -3.92598 5.8
      vertex 4.35588 -1.47862 5.8
    endloop
  endfacet
  facet normal -0 0 1
    outer loop
      vertex 4.12561 -2.03453 5.8
      vertex 6.8 -3.92598 5.8
      vertex 4.24985 -1.76034 5.8
    endloop
  endfacet
  facet normal -0 0 1
    outer loop
      vertex 3.98372 -2.3 5.8
      vertex 6.8 -3.92598 5.8
      vertex 4.12561 -2.03453 5.8
    endloop
  endfacet
  facet normal -0 0 1
    outer loop
      vertex 3.82476 -2.55562 5.8
      vertex 6.8 -3.92598 5.8
      vertex 3.98372 -2.3 5.8
    endloop
  endfacet
  facet normal -0 0 1
    outer loop
      vertex 3.64942 -2.8003 5.8
      vertex 6.8 -3.92598 5.8
      vertex 3.82476 -2.55562 5.8
    endloop
  endfacet
  facet normal -0 0 1
    outer loop
      vertex 3.45846 -3.03299 5.8
      vertex 6.8 -3.92598 5.8
      vertex 3.64942 -2.8003 5.8
    endloop
  endfacet
  facet normal -0 0 1
    outer loop
      vertex 3.25269 -3.25269 5.8
      vertex 6.8 -3.92598 5.8
      vertex 3.45846 -3.03299 5.8
    endloop
  endfacet
  facet normal -0 0 1
    outer loop
      vertex 3.03299 -3.45846 5.8
      vertex 6.8 -3.92598 5.8
      vertex 3.25269 -3.25269 5.8
    endloop
  endfacet
  facet normal -0 0 1
    outer loop
      vertex 2.8003 -3.64942 5.8
      vertex 6.8 -3.92598 5.8
      vertex 3.03299 -3.45846 5.8
    endloop
  endfacet
  facet normal -0 0 1
    outer loop
      vertex 2.55562 -3.82476 5.8
      vertex 6.8 -3.92598 5.8
      vertex 2.8003 -3.64942 5.8
    endloop
  endfacet
  facet normal 0 0 1
    outer loop
      vertex 2.3 -3.98372 5.8
      vertex 6.8 -3.92598 5.8
      vertex 2.55562 -3.82476 5.8
    endloop
  endfacet
  facet normal 0 0 1
    outer loop
      vertex 0 -7.85196 5.8
      vertex 2.3 -3.98372 5.8
      vertex 2.03453 -4.12561 5.8
    endloop
  endfacet
  facet normal 0 0 1
    outer loop
      vertex 0 -7.85196 5.8
      vertex 2.03453 -4.12561 5.8
      vertex 1.76034 -4.24985 5.8
    endloop
  endfacet
  facet normal 0 0 1
    outer loop
      vertex 0 -7.85196 5.8
      vertex 1.76034 -4.24985 5.8
      vertex 1.47862 -4.35588 5.8
    endloop
  endfacet
  facet normal 0 0 1
    outer loop
      vertex 0 -7.85196 5.8
      vertex 1.47862 -4.35588 5.8
      vertex 1.19057 -4.44326 5.8
    endloop
  endfacet
  facet normal 0 0 1
    outer loop
      vertex 0 -7.85196 5.8
      vertex 1.19057 -4.44326 5.8
      vertex 0.897415 -4.51161 5.8
    endloop
  endfacet
  facet normal 0 0 1
    outer loop
      vertex 0 -7.85196 5.8
      vertex 0.897415 -4.51161 5.8
      vertex 0.60042 -4.56065 5.8
    endloop
  endfacet
  facet normal -0 0 1
    outer loop
      vertex 2.3 -3.98372 5.8
      vertex 0 -7.85196 5.8
      vertex 6.8 -3.92598 5.8
    endloop
  endfacet
  facet normal -0 0 1
    outer loop
      vertex 0.300854 -4.59015 5.8
      vertex 0 -7.85196 5.8
      vertex 0.60042 -4.56065 5.8
    endloop
  endfacet
  facet normal -0 0 1
    outer loop
      vertex 0 -4.6 5.8
      vertex 0 -7.85196 5.8
      vertex 0.300854 -4.59015 5.8
    endloop
  endfacet
  facet normal 0 0 1
    outer loop
      vertex -0.300854 -4.59015 5.8
      vertex 0 -7.85196 5.8
      vertex 0 -4.6 5.8
    endloop
  endfacet
  facet normal 0 0 1
    outer loop
      vertex -0.60042 -4.56065 5.8
      vertex 0 -7.85196 5.8
      vertex -0.300854 -4.59015 5.8
    endloop
  endfacet
  facet normal 0 0 1
    outer loop
      vertex -0.897415 -4.51161 5.8
      vertex 0 -7.85196 5.8
      vertex -0.60042 -4.56065 5.8
    endloop
  endfacet
  facet normal 0 0 1
    outer loop
      vertex -1.19057 -4.44326 5.8
      vertex 0 -7.85196 5.8
      vertex -0.897415 -4.51161 5.8
    endloop
  endfacet
  facet normal 0 0 1
    outer loop
      vertex -1.47862 -4.35588 5.8
      vertex 0 -7.85196 5.8
      vertex -1.19057 -4.44326 5.8
    endloop
  endfacet
  facet normal 0 0 1
    outer loop
      vertex -1.76034 -4.24985 5.8
      vertex 0 -7.85196 5.8
      vertex -1.47862 -4.35588 5.8
    endloop
  endfacet
  facet normal 0 0 1
    outer loop
      vertex -2.03453 -4.12561 5.8
      vertex 0 -7.85196 5.8
      vertex -1.76034 -4.24985 5.8
    endloop
  endfacet
  facet normal 0 0 1
    outer loop
      vertex -2.3 -3.98372 5.8
      vertex 0 -7.85196 5.8
      vertex -2.03453 -4.12561 5.8
    endloop
  endfacet
  facet normal -0 0 1
    outer loop
      vertex -6.8 -3.92598 5.8
      vertex -2.3 -3.98372 5.8
      vertex -2.55562 -3.82476 5.8
    endloop
  endfacet
  facet normal 0 0 1
    outer loop
      vertex -6.8 -3.92598 5.8
      vertex -2.55562 -3.82476 5.8
      vertex -2.8003 -3.64942 5.8
    endloop
  endfacet
  facet normal 0 0 1
    outer loop
      vertex -6.8 -3.92598 5.8
      vertex -2.8003 -3.64942 5.8
      vertex -3.03299 -3.45846 5.8
    endloop
  endfacet
  facet normal 0 0 1
    outer loop
      vertex -6.8 -3.92598 5.8
      vertex -3.03299 -3.45846 5.8
      vertex -3.25269 -3.25269 5.8
    endloop
  endfacet
  facet normal 0 0 1
    outer loop
      vertex -6.8 -3.92598 5.8
      vertex -3.25269 -3.25269 5.8
      vertex -3.45846 -3.03299 5.8
    endloop
  endfacet
  facet normal 0 0 1
    outer loop
      vertex -6.8 -3.92598 5.8
      vertex -3.45846 -3.03299 5.8
      vertex -3.64942 -2.8003 5.8
    endloop
  endfacet
  facet normal 0 0 1
    outer loop
      vertex -6.8 -3.92598 5.8
      vertex -4.6 0 5.8
      vertex -6.8 3.92598 5.8
    endloop
  endfacet
  facet normal 0 0 1
    outer loop
      vertex -4.6 0 5.8
      vertex -6.8 -3.92598 5.8
      vertex -4.59015 -0.300854 5.8
    endloop
  endfacet
  facet normal 0 0 1
    outer loop
      vertex -4.59015 -0.300854 5.8
      vertex -6.8 -3.92598 5.8
      vertex -4.56065 -0.60042 5.8
    endloop
  endfacet
  facet normal 0 0 1
    outer loop
      vertex -4.56065 -0.60042 5.8
      vertex -6.8 -3.92598 5.8
      vertex -4.51161 -0.897415 5.8
    endloop
  endfacet
  facet normal 0 0 1
    outer loop
      vertex -4.51161 -0.897415 5.8
      vertex -6.8 -3.92598 5.8
      vertex -4.44326 -1.19057 5.8
    endloop
  endfacet
  facet normal 0 0 1
    outer loop
      vertex -4.44326 -1.19057 5.8
      vertex -6.8 -3.92598 5.8
      vertex -4.35588 -1.47862 5.8
    endloop
  endfacet
  facet normal 0 0 1
    outer loop
      vertex -2.3 -3.98372 5.8
      vertex -6.8 -3.92598 5.8
      vertex 0 -7.85196 5.8
    endloop
  endfacet
  facet normal 0 0 1
    outer loop
      vertex -3.82476 -2.55562 5.8
      vertex -6.8 -3.92598 5.8
      vertex -3.64942 -2.8003 5.8
    endloop
  endfacet
  facet normal 0 0 1
    outer loop
      vertex -3.98372 -2.3 5.8
      vertex -6.8 -3.92598 5.8
      vertex -3.82476 -2.55562 5.8
    endloop
  endfacet
  facet normal 0 0 1
    outer loop
      vertex -4.12561 -2.03453 5.8
      vertex -6.8 -3.92598 5.8
      vertex -3.98372 -2.3 5.8
    endloop
  endfacet
  facet normal 0 0 1
    outer loop
      vertex -4.24985 -1.76034 5.8
      vertex -6.8 -3.92598 5.8
      vertex -4.12561 -2.03453 5.8
    endloop
  endfacet
  facet normal 0 0 1
    outer loop
      vertex -4.35588 -1.47862 5.8
      vertex -6.8 -3.92598 5.8
      vertex -4.24985 -1.76034 5.8
    endloop
  endfacet
endsolid OpenSCAD_Model
